<svg width="24" height="24" viewBox="0 0 24 24" fill="none" xmlns="http://www.w3.org/2000/svg">
  <rect x="12" y="9" width="1" height="1" fill="#8C8C8C"/>
  <rect x="13" y="9" width="1" height="1" fill="#00DEFF"/>
  <rect x="14" y="9" width="1" height="1" fill="#00DEFF"/>
  <rect x="18" y="9" width="1" height="1" fill="#8C8C8C"/>
  <rect x="19" y="9" width="1" height="1" fill="#00DEFF"/>
  <rect x="20" y="9" width="1" height="1" fill="#00DEFF"/>
  <rect x="11" y="10" width="1" height="1" fill="#565656"/>
  <rect x="12" y="10" width="1" height="1" fill="#8C8C8C"/>
  <rect x="13" y="10" width="1" height="1" fill="#00DEFF"/>
  <rect x="14" y="10" width="1" height="1" fill="#9FF3FF"/>
  <rect x="17" y="10" width="1" height="1" fill="#565656"/>
  <rect x="18" y="10" width="1" height="1" fill="#8C8C8C"/>
  <rect x="19" y="10" width="1" height="1" fill="#00DEFF"/>
  <rect x="20" y="10" width="1" height="1" fill="#9FF3FF"/>
  <rect x="8" y="11" width="1" height="1" fill="#565656"/>
  <rect x="9" y="11" width="1" height="1" fill="#565656"/>
  <rect x="10" y="11" width="1" height="1" fill="#565656"/>
  <rect x="10" y="10" width="1" height="1" fill="#565656"/>
  <rect x="11" y="11" width="1" height="1" fill="#565656"/>
  <rect x="12" y="11" width="1" height="1" fill="#8C8C8C"/>
  <rect x="13" y="11" width="1" height="1" fill="#9FF3FF"/>
  <rect x="14" y="11" width="1" height="1" fill="#00DEFF"/>
  <rect x="15" y="11" width="1" height="1" fill="#565656"/>
  <rect x="16" y="11" width="1" height="1" fill="#565656"/>
  <rect x="16" y="10" width="1" height="1" fill="#565656"/>
  <rect x="17" y="11" width="1" height="1" fill="#565656"/>
  <rect x="18" y="11" width="1" height="1" fill="#8C8C8C"/>
  <rect x="19" y="11" width="1" height="1" fill="#9FF3FF"/>
  <rect x="20" y="11" width="1" height="1" fill="#00DEFF"/>
  <rect x="9" y="12" width="1" height="1" fill="#565656"/>
  <rect x="10" y="12" width="1" height="1" fill="#565656"/>
  <rect x="11" y="12" width="1" height="1" fill="#565656"/>
  <rect x="12" y="12" width="1" height="1" fill="#8C8C8C"/>
  <rect x="13" y="12" width="1" height="1" fill="#00DEFF"/>
  <rect x="14" y="12" width="1" height="1" fill="#00DEFF"/>
  <rect x="15" y="12" width="1" height="1" fill="#565656"/>
  <rect x="16" y="12" width="1" height="1" fill="#565656"/>
  <rect x="17" y="12" width="1" height="1" fill="#565656"/>
  <rect x="18" y="12" width="1" height="1" fill="#8C8C8C"/>
  <rect x="19" y="12" width="1" height="1" fill="#00DEFF"/>
  <rect x="20" y="12" width="1" height="1" fill="#00DEFF"/>
</svg>