<svg width="24" height="24" viewBox="0 0 24 24" fill="none" xmlns="http://www.w3.org/2000/svg">
  <rect x="11" y="11" width="1" height="1" fill="#FF0000"/>
  <rect x="11" y="10" width="1" height="1" fill="#FF7373"/>
  <rect x="11" y="12" width="1" height="1" fill="#FF7373"/>
  <rect x="10" y="11" width="1" height="1" fill="#FF7373"/>
  <rect x="10" y="10" width="1" height="1" fill="#FF7373"/>
  <rect x="10" y="12" width="1" height="1" fill="#FF7373"/>
  <rect x="12" y="11" width="1" height="1" fill="#FF0000"/>
  <rect x="13" y="11" width="1" height="1" fill="#FF0000"/>
  <rect x="14" y="11" width="1" height="1" fill="#FF0000"/>
  <rect x="15" y="11" width="1" height="1" fill="#FF0000"/>
  <rect x="17" y="11" width="1" height="1" fill="#FF0000"/>
  <rect x="17" y="10" width="1" height="1" fill="#FF7373"/>
  <rect x="17" y="12" width="1" height="1" fill="#FF7373"/>
  <rect x="16" y="11" width="1" height="1" fill="#FF7373"/>
  <rect x="16" y="10" width="1" height="1" fill="#FF7373"/>
  <rect x="16" y="12" width="1" height="1" fill="#FF7373"/>
  <rect x="18" y="11" width="1" height="1" fill="#FF0000"/>
  <rect x="19" y="11" width="1" height="1" fill="#FF0000"/>
  <rect x="20" y="11" width="1" height="1" fill="#FF0000"/>
  <rect x="21" y="11" width="1" height="1" fill="#FF0000"/>
  <rect x="22" y="11" width="1" height="1" fill="#FF0000"/>
  <rect x="23" y="11" width="1" height="1" fill="#FF0000"/>
</svg>