<svg width="24" height="24" viewBox="0 0 24 24" fill="none" xmlns="http://www.w3.org/2000/svg">
  <rect x="11" y="8" width="1" height="1" fill="#8A49C5"/>
  <rect x="10" y="8" width="1" height="1" fill="#8A49C5"/>
  <rect x="16" y="8" width="1" height="1" fill="#8A49C5"/>
  <rect x="17" y="8" width="1" height="1" fill="#8A49C5"/>
  <rect x="10" y="9" width="1" height="1" fill="#8A49C5"/>
  <rect x="10" y="10" width="1" height="1" fill="#ffffff"/>
  <rect x="10" y="11" width="1" height="1" fill="#000000"/>
  <rect x="10" y="12" width="1" height="1" fill="#ffffff"/>
  <rect x="11" y="9" width="1" height="1" fill="#8A49C5"/>
  <rect x="11" y="10" width="1" height="1" fill="#ffffff"/>
  <rect x="11" y="11" width="1" height="1" fill="#000000"/>
  <rect x="11" y="12" width="1" height="1" fill="#ffffff"/>
  <rect x="16" y="9" width="1" height="1" fill="#8A49C5"/>
  <rect x="16" y="10" width="1" height="1" fill="#ffffff"/>
  <rect x="16" y="11" width="1" height="1" fill="#000000"/>
  <rect x="16" y="12" width="1" height="1" fill="#ffffff"/>
  <rect x="17" y="9" width="1" height="1" fill="#8A49C5"/>
  <rect x="17" y="10" width="1" height="1" fill="#ffffff"/>
  <rect x="17" y="11" width="1" height="1" fill="#000000"/>
  <rect x="17" y="12" width="1" height="1" fill="#ffffff"/>
  <rect x="10" y="13" width="1" height="1" fill="#8A49C5"/>
  <rect x="11" y="13" width="1" height="1" fill="#8A49C5"/>
  <rect x="16" y="13" width="1" height="1" fill="#8A49C5"/>
  <rect x="17" y="13" width="1" height="1" fill="#8A49C5"/>
  <rect x="10" y="14" width="1" height="1" fill="#8A49C5"/>
  <rect x="11" y="14" width="1" height="1" fill="#8A49C5"/>
  <rect x="16" y="14" width="1" height="1" fill="#8A49C5"/>
  <rect x="17" y="14" width="1" height="1" fill="#8A49C5"/>
  <rect x="11" y="15" width="1" height="1" fill="#8A49C5"/>
  <rect x="16" y="15" width="1" height="1" fill="#8A49C5"/>
</svg>