<svg width="24" height="24" viewBox="0 0 24 24" fill="none" xmlns="http://www.w3.org/2000/svg">
  <rect x="10" y="10" width="1" height="1" fill="#404040"/>
  <rect x="11" y="10" width="1" height="1" fill="#404040"/>
  <rect x="12" y="10" width="1" height="1" fill="#404040"/>
  <rect x="13" y="10" width="1" height="1" fill="#404040"/>
  <rect x="14" y="10" width="1" height="1" fill="#404040"/>
  <rect x="15" y="10" width="1" height="1" fill="#404040"/>
  <rect x="16" y="10" width="1" height="1" fill="#404040"/>
  <rect x="17" y="10" width="1" height="1" fill="#404040"/>
  <rect x="18" y="10" width="1" height="1" fill="#404040"/>
  <rect x="9" y="11" width="1" height="1" fill="#404040"/>
  <rect x="10" y="11" width="1" height="1" fill="#404040"/>
  <rect x="11" y="11" width="1" height="1" fill="#FF0000"/>
  <rect x="12" y="11" width="1" height="1" fill="#FF8500"/>
  <rect x="13" y="11" width="1" height="1" fill="#FFF400"/>
  <rect x="14" y="11" width="1" height="1" fill="#43FF00"/>
  <rect x="15" y="11" width="1" height="1" fill="#00FFDE"/>
  <rect x="16" y="11" width="1" height="1" fill="#0016FF"/>
  <rect x="17" y="11" width="1" height="1" fill="#9B00FF"/>
  <rect x="18" y="11" width="1" height="1" fill="#404040"/>
  <rect x="19" y="11" width="1" height="1" fill="#404040"/>
  <rect x="9" y="12" width="1" height="1" fill="#404040"/>
  <rect x="10" y="12" width="1" height="1" fill="#404040"/>
  <rect x="11" y="12" width="1" height="1" fill="#FF0000"/>
  <rect x="12" y="12" width="1" height="1" fill="#FF8500"/>
  <rect x="13" y="12" width="1" height="1" fill="#FFF400"/>
  <rect x="14" y="12" width="1" height="1" fill="#43FF00"/>
  <rect x="15" y="12" width="1" height="1" fill="#00FFDE"/>
  <rect x="16" y="12" width="1" height="1" fill="#0016FF"/>
  <rect x="17" y="12" width="1" height="1" fill="#9B00FF"/>
  <rect x="18" y="12" width="1" height="1" fill="#404040"/>
  <rect x="19" y="12" width="1" height="1" fill="#404040"/>
  <rect x="10" y="13" width="1" height="1" fill="#404040"/>
  <rect x="11" y="13" width="1" height="1" fill="#404040"/>
  <rect x="12" y="13" width="1" height="1" fill="#404040"/>
  <rect x="13" y="13" width="1" height="1" fill="#404040"/>
  <rect x="14" y="13" width="1" height="1" fill="#404040"/>
  <rect x="15" y="13" width="1" height="1" fill="#404040"/>
  <rect x="16" y="13" width="1" height="1" fill="#404040"/>
  <rect x="17" y="13" width="1" height="1" fill="#404040"/>
  <rect x="18" y="13" width="1" height="1" fill="#404040"/>
</svg>