<svg width="24" height="24" viewBox="0 0 24 24" fill="none" xmlns="http://www.w3.org/2000/svg">
  <rect x="10" y="10" width="1" height="1" fill="#ffffff"/>
  <rect x="11" y="10" width="1" height="1" fill="#000000"/>
  <rect x="12" y="10" width="1" height="1" fill="#000000"/>
  <rect x="16" y="10" width="1" height="1" fill="#ffffff"/>
  <rect x="17" y="10" width="1" height="1" fill="#000000"/>
  <rect x="18" y="10" width="1" height="1" fill="#000000"/>
  <rect x="10" y="11" width="1" height="1" fill="#ffffff"/>
  <rect x="11" y="11" width="1" height="1" fill="#000000"/>
  <rect x="12" y="11" width="1" height="1" fill="#ffffff"/>
  <rect x="16" y="11" width="1" height="1" fill="#ffffff"/>
  <rect x="17" y="11" width="1" height="1" fill="#000000"/>
  <rect x="18" y="11" width="1" height="1" fill="#ffffff"/>
  <rect x="10" y="12" width="1" height="1" fill="#ffffff"/>
  <rect x="11" y="12" width="1" height="1" fill="#000000"/>
  <rect x="12" y="12" width="1" height="1" fill="#000000"/>
  <rect x="10" y="13" width="1" height="1" fill="#76F9FF"/>
  <rect x="9" y="13" width="1" height="1" fill="#76F9FF"/>
  <rect x="11" y="13" width="1" height="1" fill="#76F9FF"/>
  <rect x="16" y="12" width="1" height="1" fill="#ffffff"/>
  <rect x="17" y="12" width="1" height="1" fill="#000000"/>
  <rect x="18" y="12" width="1" height="1" fill="#000000"/>
  <rect x="18" y="13" width="1" height="1" fill="#76F9FF"/>
  <rect x="19" y="13" width="1" height="1" fill="#76F9FF"/>
</svg>