<svg width="24" height="24" viewBox="0 0 24 24" fill="none" xmlns="http://www.w3.org/2000/svg">
  <rect x="18" y="12" width="1" height="1" fill="#F97EFF"/>
  <rect x="19" y="12" width="1" height="1" fill="#F97EFF"/>
  <rect x="20" y="12" width="1" height="1" fill="#F97EFF"/>
  <rect x="17" y="13" width="1" height="1" fill="#F97EFF"/>
  <rect x="18" y="13" width="1" height="1" fill="#F97EFF"/>
  <rect x="19" y="13" width="1" height="1" fill="#F97EFF"/>
  <rect x="20" y="13" width="1" height="1" fill="#F97EFF"/>
  <rect x="21" y="13" width="1" height="1" fill="#F97EFF"/>
  <rect x="13" y="14" width="1" height="1" fill="#000000"/>
  <rect x="16" y="14" width="1" height="1" fill="#F97EFF"/>
  <rect x="17" y="14" width="1" height="1" fill="#F97EFF"/>
  <rect x="18" y="14" width="1" height="1" fill="#F97EFF"/>
  <rect x="19" y="14" width="1" height="1" fill="#F97EFF"/>
  <rect x="20" y="14" width="1" height="1" fill="#F97EFF"/>
  <rect x="21" y="14" width="1" height="1" fill="#FDC8FF"/>
  <rect x="14" y="15" width="1" height="1" fill="#000000"/>
  <rect x="15" y="15" width="1" height="1" fill="#F97EFF"/>
  <rect x="16" y="15" width="1" height="1" fill="#F97EFF"/>
  <rect x="17" y="15" width="1" height="1" fill="#F97EFF"/>
  <rect x="18" y="15" width="1" height="1" fill="#F97EFF"/>
  <rect x="19" y="15" width="1" height="1" fill="#F97EFF"/>
  <rect x="20" y="15" width="1" height="1" fill="#F97EFF"/>
  <rect x="21" y="15" width="1" height="1" fill="#FDC8FF"/>
  <rect x="13" y="16" width="1" height="1" fill="#000000"/>
  <rect x="16" y="16" width="1" height="1" fill="#F97EFF"/>
  <rect x="17" y="16" width="1" height="1" fill="#F97EFF"/>
  <rect x="18" y="16" width="1" height="1" fill="#F97EFF"/>
  <rect x="19" y="16" width="1" height="1" fill="#F97EFF"/>
  <rect x="20" y="16" width="1" height="1" fill="#FDC8FF"/>
</svg>