<svg width="24" height="24" viewBox="0 0 24 24" fill="none" xmlns="http://www.w3.org/2000/svg">
  <rect x="20" y="9" width="1" height="1" fill="#ffffff"/>
  <rect x="19" y="10" width="1" height="1" fill="#ffffff"/>
  <rect x="19" y="11" width="1" height="1" fill="#ffffff"/>
  <rect x="20" y="11" width="1" height="1" fill="#ffffff"/>
  <rect x="20" y="12" width="1" height="1" fill="#ffffff"/>
  <rect x="19" y="13" width="1" height="1" fill="#ffffff"/>
  <rect x="11" y="14" width="1" height="1" fill="#000000"/>
  <rect x="12" y="14" width="1" height="1" fill="#000000"/>
  <rect x="13" y="14" width="1" height="1" fill="#000000"/>
  <rect x="14" y="14" width="1" height="1" fill="#000000"/>
  <rect x="15" y="14" width="1" height="1" fill="#000000"/>
  <rect x="18" y="14" width="1" height="1" fill="#ffffff"/>
  <rect x="19" y="14" width="1" height="1" fill="#ffffff"/>
  <rect x="20" y="14" width="1" height="1" fill="#ffffff"/>
  <rect x="11" y="15" width="1" height="1" fill="#000000"/>
  <rect x="12" y="15" width="1" height="1" fill="#FFF8F7"/>
  <rect x="13" y="15" width="1" height="1" fill="#FFF8F7"/>
  <rect x="14" y="15" width="1" height="1" fill="#698DA7"/>
  <rect x="15" y="15" width="1" height="1" fill="#698DA7"/>
  <rect x="16" y="15" width="1" height="1" fill="#0C4367"/>
  <rect x="17" y="15" width="1" height="1" fill="#0C4367"/>
  <rect x="18" y="15" width="1" height="1" fill="#0C4367"/>
  <rect x="19" y="15" width="1" height="1" fill="#0C4367"/>
  <rect x="20" y="15" width="1" height="1" fill="#0C4367"/>
  <rect x="11" y="16" width="1" height="1" fill="#000000"/>
  <rect x="12" y="16" width="1" height="1" fill="#000000"/>
  <rect x="13" y="16" width="1" height="1" fill="#000000"/>
  <rect x="14" y="16" width="1" height="1" fill="#000000"/>
  <rect x="15" y="16" width="1" height="1" fill="#000000"/>
  <rect x="16" y="16" width="1" height="1" fill="#698DA7"/>
  <rect x="17" y="16" width="1" height="1" fill="#0C4367"/>
  <rect x="18" y="16" width="1" height="1" fill="#0C4367"/>
  <rect x="19" y="16" width="1" height="1" fill="#0C4367"/>
  <rect x="20" y="16" width="1" height="1" fill="#0C4367"/>
  <rect x="17" y="17" width="1" height="1" fill="#698DA7"/>
  <rect x="18" y="17" width="1" height="1" fill="#0C4367"/>
  <rect x="19" y="17" width="1" height="1" fill="#0C4367"/>
  <rect x="20" y="17" width="1" height="1" fill="#0C4367"/>
</svg>