<svg width="24" height="24" viewBox="0 0 24 24" fill="none" xmlns="http://www.w3.org/2000/svg">
  <rect x="10" y="3" width="1" height="1" fill="#2E2E2E"/>
  <rect x="11" y="3" width="1" height="1" fill="#2E2E2E"/>
  <rect x="12" y="3" width="1" height="1" fill="#444444"/>
  <rect x="13" y="3" width="1" height="1" fill="#444444"/>
  <rect x="14" y="3" width="1" height="1" fill="#444444"/>
  <rect x="15" y="3" width="1" height="1" fill="#444444"/>
  <rect x="9" y="4" width="1" height="1" fill="#2E2E2E"/>
  <rect x="10" y="4" width="1" height="1" fill="#444444"/>
  <rect x="11" y="4" width="1" height="1" fill="#444444"/>
  <rect x="12" y="4" width="1" height="1" fill="#444444"/>
  <rect x="13" y="4" width="1" height="1" fill="#444444"/>
  <rect x="14" y="4" width="1" height="1" fill="#444444"/>
  <rect x="15" y="4" width="1" height="1" fill="#444444"/>
  <rect x="16" y="4" width="1" height="1" fill="#444444"/>
  <rect x="8" y="5" width="1" height="1" fill="#2E2E2E"/>
  <rect x="9" y="5" width="1" height="1" fill="#444444"/>
  <rect x="10" y="5" width="1" height="1" fill="#444444"/>
  <rect x="11" y="5" width="1" height="1" fill="#444444"/>
  <rect x="12" y="5" width="1" height="1" fill="#444444"/>
  <rect x="13" y="5" width="1" height="1" fill="#444444"/>
  <rect x="14" y="5" width="1" height="1" fill="#444444"/>
  <rect x="15" y="5" width="1" height="1" fill="#444444"/>
  <rect x="16" y="5" width="1" height="1" fill="#444444"/>
  <rect x="17" y="5" width="1" height="1" fill="#444444"/>
  <rect x="8" y="6" width="1" height="1" fill="#000000"/>
  <rect x="9" y="6" width="1" height="1" fill="#000000"/>
  <rect x="10" y="6" width="1" height="1" fill="#000000"/>
  <rect x="11" y="6" width="1" height="1" fill="#000000"/>
  <rect x="12" y="6" width="1" height="1" fill="#000000"/>
  <rect x="13" y="6" width="1" height="1" fill="#000000"/>
  <rect x="14" y="6" width="1" height="1" fill="#000000"/>
  <rect x="15" y="6" width="1" height="1" fill="#000000"/>
  <rect x="16" y="6" width="1" height="1" fill="#000000"/>
  <rect x="17" y="6" width="1" height="1" fill="#000000"/>
  <rect x="18" y="6" width="1" height="1" fill="#000000"/>
  <rect x="19" y="6" width="1" height="1" fill="#000000"/>
</svg>