<svg width="24" height="24" viewBox="0 0 24 24" fill="none" xmlns="http://www.w3.org/2000/svg">
  <rect x="9" y="18" width="1" height="1" fill="#1E1E1E"/>
  <rect x="12" y="18" width="1" height="1" fill="#1E1E1E"/>
  <rect x="8" y="19" width="1" height="1" fill="#1E1E1E"/>
  <rect x="9" y="19" width="1" height="1" fill="#1E1E1E"/>
  <rect x="10" y="19" width="1" height="1" fill="#1E1E1E"/>
  <rect x="11" y="19" width="1" height="1" fill="#1E1E1E"/>
  <rect x="12" y="19" width="1" height="1" fill="#1E1E1E"/>
  <rect x="13" y="19" width="1" height="1" fill="#1E1E1E"/>
  <rect x="7" y="20" width="1" height="1" fill="#1E1E1E"/>
  <rect x="8" y="20" width="1" height="1" fill="#1E1E1E"/>
  <rect x="9" y="20" width="1" height="1" fill="#8D8D8D"/>
  <rect x="10" y="20" width="1" height="1" fill="#8D8D8D"/>
  <rect x="11" y="20" width="1" height="1" fill="#8D8D8D"/>
  <rect x="12" y="20" width="1" height="1" fill="#8D8D8D"/>
  <rect x="13" y="20" width="1" height="1" fill="#8D8D8D"/>
  <rect x="14" y="20" width="1" height="1" fill="#1E1E1E"/>
  <rect x="6" y="21" width="1" height="1" fill="#1E1E1E"/>
  <rect x="7" y="21" width="1" height="1" fill="#1E1E1E"/>
  <rect x="8" y="21" width="1" height="1" fill="#1E1E1E"/>
  <rect x="9" y="21" width="1" height="1" fill="#8D8D8D"/>
  <rect x="10" y="21" width="1" height="1" fill="#7FD570"/>
  <rect x="11" y="21" width="1" height="1" fill="#8D8D8D"/>
  <rect x="12" y="21" width="1" height="1" fill="#7FD570"/>
  <rect x="13" y="21" width="1" height="1" fill="#8D8D8D"/>
  <rect x="14" y="21" width="1" height="1" fill="#1E1E1E"/>
  <rect x="6" y="22" width="1" height="1" fill="#1E1E1E"/>
  <rect x="7" y="22" width="1" height="1" fill="#1E1E1E"/>
  <rect x="8" y="22" width="1" height="1" fill="#1E1E1E"/>
  <rect x="9" y="22" width="1" height="1" fill="#8D8D8D"/>
  <rect x="10" y="22" width="1" height="1" fill="#8D8D8D"/>
  <rect x="11" y="22" width="1" height="1" fill="#8D8D8D"/>
  <rect x="12" y="22" width="1" height="1" fill="#8D8D8D"/>
  <rect x="13" y="22" width="1" height="1" fill="#8D8D8D"/>
  <rect x="14" y="22" width="1" height="1" fill="#1E1E1E"/>
  <rect x="5" y="23" width="1" height="1" fill="#1E1E1E"/>
  <rect x="7" y="23" width="1" height="1" fill="#1E1E1E"/>
  <rect x="8" y="23" width="1" height="1" fill="#1E1E1E"/>
  <rect x="9" y="23" width="1" height="1" fill="#1E1E1E"/>
  <rect x="10" y="23" width="1" height="1" fill="#1E1E1E"/>
  <rect x="11" y="23" width="1" height="1" fill="#1E1E1E"/>
  <rect x="12" y="23" width="1" height="1" fill="#1E1E1E"/>
  <rect x="13" y="23" width="1" height="1" fill="#1E1E1E"/>
  <rect x="15" y="23" width="1" height="1" fill="#1E1E1E"/>
</svg>