<svg width="24" height="24" viewBox="0 0 24 24" fill="none" xmlns="http://www.w3.org/2000/svg">
  <rect x="10" y="18" width="1" height="1" fill="#FF1818"/>
  <rect x="11" y="18" width="1" height="1" fill="#FF1818"/>
  <rect x="9" y="19" width="1" height="1" fill="#FFD818"/>
  <rect x="10" y="19" width="1" height="1" fill="#FFD818"/>
  <rect x="11" y="19" width="1" height="1" fill="#FFD818"/>
  <rect x="12" y="19" width="1" height="1" fill="#FFD818"/>
  <rect x="8" y="20" width="1" height="1" fill="#37E000"/>
  <rect x="9" y="20" width="1" height="1" fill="#37E000"/>
  <rect x="10" y="20" width="1" height="1" fill="#37E000"/>
  <rect x="11" y="20" width="1" height="1" fill="#37E000"/>
  <rect x="12" y="20" width="1" height="1" fill="#37E000"/>
  <rect x="13" y="20" width="1" height="1" fill="#37E000"/>
  <rect x="7" y="21" width="1" height="1" fill="#00E0C1"/>
  <rect x="8" y="21" width="1" height="1" fill="#00E0C1"/>
  <rect x="9" y="21" width="1" height="1" fill="#00E0C1"/>
  <rect x="10" y="21" width="1" height="1" fill="#00E0C1"/>
  <rect x="11" y="21" width="1" height="1" fill="#00E0C1"/>
  <rect x="12" y="21" width="1" height="1" fill="#00E0C1"/>
  <rect x="13" y="21" width="1" height="1" fill="#00E0C1"/>
  <rect x="7" y="22" width="1" height="1" fill="#0045E0"/>
  <rect x="8" y="22" width="1" height="1" fill="#0045E0"/>
  <rect x="9" y="22" width="1" height="1" fill="#0045E0"/>
  <rect x="10" y="22" width="1" height="1" fill="#0045E0"/>
  <rect x="11" y="22" width="1" height="1" fill="#0045E0"/>
  <rect x="12" y="22" width="1" height="1" fill="#0045E0"/>
  <rect x="13" y="22" width="1" height="1" fill="#0045E0"/>
  <rect x="7" y="23" width="1" height="1" fill="#EA28ED"/>
  <rect x="8" y="23" width="1" height="1" fill="#EA28ED"/>
  <rect x="9" y="23" width="1" height="1" fill="#EA28ED"/>
  <rect x="10" y="23" width="1" height="1" fill="#EA28ED"/>
  <rect x="11" y="23" width="1" height="1" fill="#EA28ED"/>
  <rect x="12" y="23" width="1" height="1" fill="#EA28ED"/>
  <rect x="13" y="23" width="1" height="1" fill="#EA28ED"/>
</svg>