<svg width="24" height="24" viewBox="0 0 24 24" fill="none" xmlns="http://www.w3.org/2000/svg">
  <rect x="8" y="19" width="1" height="1" fill="#313131"/>
  <rect x="9" y="19" width="1" height="1" fill="#707070"/>
  <rect x="10" y="19" width="1" height="1" fill="#BEBEBE"/>
  <rect x="11" y="19" width="1" height="1" fill="#707070"/>
  <rect x="12" y="19" width="1" height="1" fill="#BEBEBE"/>
  <rect x="8" y="20" width="1" height="1" fill="#313131"/>
  <rect x="9" y="20" width="1" height="1" fill="#707070"/>
  <rect x="10" y="20" width="1" height="1" fill="#BEBEBE"/>
  <rect x="11" y="20" width="1" height="1" fill="#707070"/>
  <rect x="12" y="20" width="1" height="1" fill="#BEBEBE"/>
  <rect x="13" y="20" width="1" height="1" fill="#313131"/>
  <rect x="7" y="21" width="1" height="1" fill="#313131"/>
  <rect x="8" y="21" width="1" height="1" fill="#313131"/>
  <rect x="9" y="21" width="1" height="1" fill="#707070"/>
  <rect x="10" y="21" width="1" height="1" fill="#707070"/>
  <rect x="11" y="21" width="1" height="1" fill="#707070"/>
  <rect x="12" y="21" width="1" height="1" fill="#707070"/>
  <rect x="13" y="21" width="1" height="1" fill="#313131"/>
  <rect x="7" y="22" width="1" height="1" fill="#9C9C9C"/>
  <rect x="8" y="22" width="1" height="1" fill="#9C9C9C"/>
  <rect x="9" y="22" width="1" height="1" fill="#707070"/>
  <rect x="10" y="22" width="1" height="1" fill="#707070"/>
  <rect x="11" y="22" width="1" height="1" fill="#707070"/>
  <rect x="12" y="22" width="1" height="1" fill="#707070"/>
  <rect x="13" y="22" width="1" height="1" fill="#9C9C9C"/>
  <rect x="7" y="23" width="1" height="1" fill="#9C9C9C"/>
  <rect x="8" y="23" width="1" height="1" fill="#9C9C9C"/>
  <rect x="9" y="23" width="1" height="1" fill="#D0D0D0"/>
  <rect x="10" y="23" width="1" height="1" fill="#D0D0D0"/>
  <rect x="11" y="23" width="1" height="1" fill="#D0D0D0"/>
  <rect x="12" y="23" width="1" height="1" fill="#D0D0D0"/>
  <rect x="13" y="23" width="1" height="1" fill="#9C9C9C"/>
</svg>