<svg width="24" height="24" viewBox="0 0 24 24" fill="none" xmlns="http://www.w3.org/2000/svg">
  <rect x="11" y="14" width="1" height="1" fill="#000000"/>
  <rect x="12" y="14" width="1" height="1" fill="#000000"/>
  <rect x="13" y="14" width="1" height="1" fill="#000000"/>
  <rect x="14" y="14" width="1" height="1" fill="#000000"/>
  <rect x="15" y="14" width="1" height="1" fill="#000000"/>
  <rect x="16" y="14" width="1" height="1" fill="#000000"/>
  <rect x="11" y="15" width="1" height="1" fill="#9945F4"/>
  <rect x="12" y="15" width="1" height="1" fill="#2255FA"/>
  <rect x="13" y="15" width="1" height="1" fill="#00E4D9"/>
  <rect x="14" y="15" width="1" height="1" fill="#77FF3D"/>
  <rect x="15" y="15" width="1" height="1" fill="#FFD93D"/>
  <rect x="16" y="15" width="1" height="1" fill="#FF2626"/>
  <rect x="11" y="16" width="1" height="1" fill="#9945F4"/>
  <rect x="12" y="16" width="1" height="1" fill="#2255FA"/>
  <rect x="13" y="16" width="1" height="1" fill="#00E4D9"/>
  <rect x="14" y="16" width="1" height="1" fill="#77FF3D"/>
  <rect x="15" y="16" width="1" height="1" fill="#FFD93D"/>
  <rect x="16" y="16" width="1" height="1" fill="#FF2626"/>
  <rect x="11" y="17" width="1" height="1" fill="#9945F4"/>
  <rect x="12" y="17" width="1" height="1" fill="#2255FA"/>
  <rect x="13" y="17" width="1" height="1" fill="#00E4D9"/>
  <rect x="14" y="17" width="1" height="1" fill="#77FF3D"/>
  <rect x="15" y="17" width="1" height="1" fill="#FFD93D"/>
  <rect x="16" y="17" width="1" height="1" fill="#FF2626"/>
</svg>