<svg width="24" height="24" viewBox="0 0 24 24" fill="none" xmlns="http://www.w3.org/2000/svg">
<path d="M16 3H15V4H16V3Z" fill="#F57A00"/>
<path d="M15 4H14V5H15V4Z" fill="#F57A00"/>
<path d="M16 4H15V5H16V4Z" fill="#F57A00"/>
<path d="M13 5H12V6H13V5Z" fill="#F57A00"/>
<path d="M14 5H13V6H14V5Z" fill="#F57A00"/>
<path d="M15 5H14V6H15V5Z" fill="#F57A00"/>
<path d="M16 5H15V6H16V5Z" fill="#F57A00"/>
<path d="M11 6H10V7H11V6Z" fill="#F57A00"/>
<path d="M12 6H11V7H12V6Z" fill="#F57A00"/>
<path d="M13 6H12V7H13V6Z" fill="#F57A00"/>
<path d="M14 6H13V7H14V6Z" fill="#F57A00"/>
<path d="M15 6H14V7H15V6Z" fill="#F57A00"/>
<path d="M16 6H15V7H16V6Z" fill="#F57A00"/>
<path d="M9 7H8V8H9V7Z" fill="#C3926F"/>
<path d="M8 7H7V8H8V7Z" fill="#C3926F"/>
<path d="M7 7H6V8H7V7Z" fill="#C3926F"/>
<path d="M10 7H9V8H10V7Z" fill="#F5C7A6"/>
<path d="M11 7H10V8H11V7Z" fill="#F57A00"/>
<path d="M18 7H17V8H18V7Z" fill="#F5C7A6"/>
<path d="M19 7H18V8H19V7Z" fill="#F5C7A6"/>
<path d="M9 8H8V9H9V8Z" fill="#F5C7A6"/>
<path d="M8 8H7V9H8V8Z" fill="#C3926F"/>
<path d="M7 8H6V9H7V8Z" fill="#C3926F"/>
<path d="M6 8H5V9H6V8Z" fill="#C3926F"/>
<path d="M10 8H9V9H10V8Z" fill="#F5C7A6"/>
<path d="M11 8H10V9H11V8Z" fill="#F5C7A6"/>
<path d="M12 8H11V9H12V8Z" fill="#F5C7A6"/>
<path d="M12 7H11V8H12V7Z" fill="#F57A00"/>
<path d="M13 8H12V9H13V8Z" fill="#F5C7A6"/>
<path d="M13 7H12V8H13V7Z" fill="#F57A00"/>
<path d="M14 8H13V9H14V8Z" fill="#F5C7A6"/>
<path d="M14 7H13V8H14V7Z" fill="#F57A00"/>
<path d="M19 8H18V9H19V8Z" fill="#F5C7A6"/>
<path d="M15 8H14V9H15V8Z" fill="#F5C7A6"/>
<path d="M15 7H14V8H15V7Z" fill="#F57A00"/>
<path d="M16 8H15V9H16V8Z" fill="#F5C7A6"/>
<path d="M16 7H15V8H16V7Z" fill="#F57A00"/>
<path d="M17 8H16V9H17V8Z" fill="#F5C7A6"/>
<path d="M17 7H16V8H17V7Z" fill="#F5C7A6"/>
<path d="M18 8H17V9H18V8Z" fill="#F5C7A6"/>
<path d="M9 9H8V10H9V9Z" fill="#F5C7A6"/>
<path d="M8 9H7V10H8V9Z" fill="#C3926F"/>
<path d="M7 9H6V10H7V9Z" fill="#C3926F"/>
<path d="M6 9H5V10H6V9Z" fill="#C3926F"/>
<path d="M10 9H9V10H10V9Z" fill="#F5C7A6"/>
<path d="M11 9H10V10H11V9Z" fill="#F5C7A6"/>
<path d="M12 9H11V10H12V9Z" fill="#F5C7A6"/>
<path d="M13 9H12V10H13V9Z" fill="#F5C7A6"/>
<path d="M14 9H13V10H14V9Z" fill="#F5C7A6"/>
<path d="M19 9H18V10H19V9Z" fill="#F5C7A6"/>
<path d="M15 9H14V10H15V9Z" fill="#F5C7A6"/>
<path d="M16 9H15V10H16V9Z" fill="#F5C7A6"/>
<path d="M17 9H16V10H17V9Z" fill="#F5C7A6"/>
<path d="M18 9H17V10H18V9Z" fill="#F5C7A6"/>
<path d="M9 10H8V11H9V10Z" fill="#F5C7A6"/>
<path d="M8 10H7V11H8V10Z" fill="#C3926F"/>
<path d="M7 10H6V11H7V10Z" fill="#C3926F"/>
<path d="M6 10H5V11H6V10Z" fill="#C3926F"/>
<path d="M10 10H9V11H10V10Z" fill="#F5C7A6"/>
<path d="M11 10H10V11H11V10Z" fill="#F5C7A6"/>
<path d="M12 10H11V11H12V10Z" fill="#F5C7A6"/>
<path d="M13 10H12V11H13V10Z" fill="#F5C7A6"/>
<path d="M14 10H13V11H14V10Z" fill="#F5C7A6"/>
<path d="M19 10H18V11H19V10Z" fill="#F5C7A6"/>
<path d="M15 10H14V11H15V10Z" fill="#F5C7A6"/>
<path d="M16 10H15V11H16V10Z" fill="#F5C7A6"/>
<path d="M17 10H16V11H17V10Z" fill="#F5C7A6"/>
<path d="M18 10H17V11H18V10Z" fill="#F5C7A6"/>
<path d="M9 11H8V12H9V11Z" fill="#F5C7A6"/>
<path d="M8 11H7V12H8V11Z" fill="#C3926F"/>
<path d="M7 11H6V12H7V11Z" fill="#C3926F"/>
<path d="M6 11H5V12H6V11Z" fill="#C3926F"/>
<path d="M10 11H9V12H10V11Z" fill="#F5C7A6"/>
<path d="M11 11H10V12H11V11Z" fill="white"/>
<path d="M12 11H11V12H12V11Z" fill="black"/>
<path d="M13 11H12V12H13V11Z" fill="#F5C7A6"/>
<path d="M14 11H13V12H14V11Z" fill="#F5C7A6"/>
<path d="M19 11H18V12H19V11Z" fill="#F5C7A6"/>
<path d="M15 11H14V12H15V11Z" fill="#F5C7A6"/>
<path d="M16 11H15V12H16V11Z" fill="#F5C7A6"/>
<path d="M17 11H16V12H17V11Z" fill="white"/>
<path d="M18 11H17V12H18V11Z" fill="black"/>
<path d="M6 12H5V13H6V12Z" fill="#F5C7A6"/>
<path d="M7 12H6V13H7V12Z" fill="#F5C7A6"/>
<path d="M8 12H7V13H8V12Z" fill="#F5C7A6"/>
<path d="M9 12H8V13H9V12Z" fill="#F5C7A6"/>
<path d="M10 12H9V13H10V12Z" fill="#F5C7A6"/>
<path d="M11 12H10V13H11V12Z" fill="#F5C7A6"/>
<path d="M12 12H11V13H12V12Z" fill="#F5C7A6"/>
<path d="M13 12H12V13H13V12Z" fill="#F5C7A6"/>
<path d="M14 12H13V13H14V12Z" fill="#F5C7A6"/>
<path d="M19 12H18V13H19V12Z" fill="#F5C7A6"/>
<path d="M15 12H14V13H15V12Z" fill="#F5C7A6"/>
<path d="M16 12H15V13H16V12Z" fill="#F5C7A6"/>
<path d="M17 12H16V13H17V12Z" fill="#F5C7A6"/>
<path d="M18 12H17V13H18V12Z" fill="#F5C7A6"/>
<path d="M6 13H5V14H6V13Z" fill="#F5C7A6"/>
<path d="M7 13H6V14H7V13Z" fill="#C3926F"/>
<path d="M8 13H7V14H8V13Z" fill="#F5C7A6"/>
<path d="M9 13H8V14H9V13Z" fill="#F5C7A6"/>
<path d="M10 13H9V14H10V13Z" fill="#F5C7A6"/>
<path d="M11 13H10V14H11V13Z" fill="#F5C7A6"/>
<path d="M12 13H11V14H12V13Z" fill="#F5C7A6"/>
<path d="M13 13H12V14H13V13Z" fill="#F5C7A6"/>
<path d="M14 13H13V14H14V13Z" fill="#F5C7A6"/>
<path d="M19 13H18V14H19V13Z" fill="#F5C7A6"/>
<path d="M15 13H14V14H15V13Z" fill="#F5C7A6"/>
<path d="M16 13H15V14H16V13Z" fill="#F5C7A6"/>
<path d="M17 13H16V14H17V13Z" fill="#F5C7A6"/>
<path d="M18 13H17V14H18V13Z" fill="#F5C7A6"/>
<path d="M6 14H5V15H6V14Z" fill="#F5C7A6"/>
<path d="M7 14H6V15H7V14Z" fill="#F5C7A6"/>
<path d="M8 14H7V15H8V14Z" fill="#F5C7A6"/>
<path d="M9 14H8V15H9V14Z" fill="#F5C7A6"/>
<path d="M10 14H9V15H10V14Z" fill="#F5C7A6"/>
<path d="M11 14H10V15H11V14Z" fill="#F5C7A6"/>
<path d="M12 14H11V15H12V14Z" fill="#F5C7A6"/>
<path d="M13 14H12V15H13V14Z" fill="#F5C7A6"/>
<path d="M14 14H13V15H14V14Z" fill="#F5C7A6"/>
<path d="M19 14H18V15H19V14Z" fill="#F5C7A6"/>
<path d="M15 14H14V15H15V14Z" fill="#F5C7A6"/>
<path d="M16 14H15V15H16V14Z" fill="#F5C7A6"/>
<path d="M17 14H16V15H17V14Z" fill="#F5C7A6"/>
<path d="M18 14H17V15H18V14Z" fill="#F5C7A6"/>
<path d="M9 15H8V16H9V15Z" fill="#F5C7A6"/>
<path d="M10 15H9V16H10V15Z" fill="#F5C7A6"/>
<path d="M11 15H10V16H11V15Z" fill="#F5C7A6"/>
<path d="M12 15H11V16H12V15Z" fill="#F5C7A6"/>
<path d="M13 15H12V16H13V15Z" fill="#F5C7A6"/>
<path d="M14 15H13V16H14V15Z" fill="#F5C7A6"/>
<path d="M19 15H18V16H19V15Z" fill="#F5C7A6"/>
<path d="M15 15H14V16H15V15Z" fill="#F5C7A6"/>
<path d="M16 15H15V16H16V15Z" fill="#F5C7A6"/>
<path d="M17 15H16V16H17V15Z" fill="#F5C7A6"/>
<path d="M18 15H17V16H18V15Z" fill="#F5C7A6"/>
<path d="M9 16H8V17H9V16Z" fill="#F5C7A6"/>
<path d="M10 16H9V17H10V16Z" fill="#F5C7A6"/>
<path d="M11 16H10V17H11V16Z" fill="#F5C7A6"/>
<path d="M12 16H11V17H12V16Z" fill="#F5C7A6"/>
<path d="M13 16H12V17H13V16Z" fill="#F5C7A6"/>
<path d="M14 16H13V17H14V16Z" fill="#F5C7A6"/>
<path d="M19 16H18V17H19V16Z" fill="#F5C7A6"/>
<path d="M15 16H14V17H15V16Z" fill="#F5C7A6"/>
<path d="M16 16H15V17H16V16Z" fill="#F5C7A6"/>
<path d="M17 16H16V17H17V16Z" fill="#F5C7A6"/>
<path d="M18 16H17V17H18V16Z" fill="#F5C7A6"/>
<path d="M9 17H8V18H9V17Z" fill="#F5C7A6"/>
<path d="M10 17H9V18H10V17Z" fill="#F5C7A6"/>
<path d="M11 17H10V18H11V17Z" fill="#F5C7A6"/>
<path d="M12 17H11V18H12V17Z" fill="#F5C7A6"/>
<path d="M13 17H12V18H13V17Z" fill="#F5C7A6"/>
<path d="M14 17H13V18H14V17Z" fill="#F5C7A6"/>
<path d="M19 17H18V18H19V17Z" fill="#F5C7A6"/>
<path d="M15 17H14V18H15V17Z" fill="#F5C7A6"/>
<path d="M16 17H15V18H16V17Z" fill="#F5C7A6"/>
<path d="M17 17H16V18H17V17Z" fill="#F5C7A6"/>
<path d="M18 17H17V18H18V17Z" fill="#F5C7A6"/>
<path d="M11 18H10V19H11V18Z" fill="#C3926F"/>
<path d="M12 18H11V19H12V18Z" fill="#C3926F"/>
<path d="M10 19H9V20H10V19Z" fill="#F5C7A6"/>
<path d="M11 19H10V20H11V19Z" fill="#F5C7A6"/>
<path d="M12 19H11V20H12V19Z" fill="#F5C7A6"/>
<path d="M13 19H12V20H13V19Z" fill="#F5C7A6"/>
<path d="M9 20H8V21H9V20Z" fill="#F5C7A6"/>
<path d="M10 20H9V21H10V20Z" fill="#F5C7A6"/>
<path d="M11 20H10V21H11V20Z" fill="#F5C7A6"/>
<path d="M12 20H11V21H12V20Z" fill="#F5C7A6"/>
<path d="M13 20H12V21H13V20Z" fill="#F5C7A6"/>
<path d="M14 20H13V21H14V20Z" fill="#F5C7A6"/>
<path d="M8 21H7V22H8V21Z" fill="#F5C7A6"/>
<path d="M9 21H8V22H9V21Z" fill="#F5C7A6"/>
<path d="M10 21H9V22H10V21Z" fill="#F5C7A6"/>
<path d="M11 21H10V22H11V21Z" fill="#F5C7A6"/>
<path d="M12 21H11V22H12V21Z" fill="#F5C7A6"/>
<path d="M13 21H12V22H13V21Z" fill="#F5C7A6"/>
<path d="M14 21H13V22H14V21Z" fill="#F5C7A6"/>
<path d="M8 22H7V23H8V22Z" fill="#F5C7A6"/>
<path d="M9 22H8V23H9V22Z" fill="#F5C7A6"/>
<path d="M10 22H9V23H10V22Z" fill="#F5C7A6"/>
<path d="M11 22H10V23H11V22Z" fill="#F5C7A6"/>
<path d="M12 22H11V23H12V22Z" fill="#F5C7A6"/>
<path d="M13 22H12V23H13V22Z" fill="#F5C7A6"/>
<path d="M14 22H13V23H14V22Z" fill="#F5C7A6"/>
<path d="M8 23H7V24H8V23Z" fill="#F5C7A6"/>
<path d="M9 23H8V24H9V23Z" fill="#F5C7A6"/>
<path d="M10 23H9V24H10V23Z" fill="#F5C7A6"/>
<path d="M11 23H10V24H11V23Z" fill="#F5C7A6"/>
<path d="M12 23H11V24H12V23Z" fill="#F5C7A6"/>
<path d="M13 23H12V24H13V23Z" fill="#F5C7A6"/>
<path d="M14 23H13V24H14V23Z" fill="#F5C7A6"/>
</svg>
