<svg width="24" height="24" viewBox="0 0 24 24" fill="none" xmlns="http://www.w3.org/2000/svg">
  <rect x="13" y="1" width="1" height="1" fill="#024824"/>
  <rect x="12" y="2" width="1" height="1" fill="#024824"/>
  <rect x="9" y="3" width="1" height="1" fill="#024824"/>
  <rect x="10" y="3" width="1" height="1" fill="#016737"/>
  <rect x="11" y="3" width="1" height="1" fill="#3BB44B"/>
  <rect x="12" y="3" width="1" height="1" fill="#016737"/>
  <rect x="13" y="3" width="1" height="1" fill="#3BB44B"/>
  <rect x="14" y="3" width="1" height="1" fill="#016737"/>
  <rect x="15" y="3" width="1" height="1" fill="#016737"/>
  <rect x="8" y="4" width="1" height="1" fill="#024824"/>
  <rect x="9" y="4" width="1" height="1" fill="#016737"/>
  <rect x="10" y="4" width="1" height="1" fill="#3BB44B"/>
  <rect x="11" y="4" width="1" height="1" fill="#3BB44B"/>
  <rect x="12" y="4" width="1" height="1" fill="#016737"/>
  <rect x="13" y="4" width="1" height="1" fill="#3BB44B"/>
  <rect x="14" y="4" width="1" height="1" fill="#3BB44B"/>
  <rect x="15" y="4" width="1" height="1" fill="#016737"/>
  <rect x="16" y="4" width="1" height="1" fill="#016737"/>
  <rect x="7" y="5" width="1" height="1" fill="#024824"/>
  <rect x="8" y="5" width="1" height="1" fill="#016737"/>
  <rect x="9" y="5" width="1" height="1" fill="#3BB44B"/>
  <rect x="10" y="5" width="1" height="1" fill="#3BB44B"/>
  <rect x="11" y="5" width="1" height="1" fill="#016737"/>
  <rect x="12" y="5" width="1" height="1" fill="#016737"/>
  <rect x="13" y="5" width="1" height="1" fill="#016737"/>
  <rect x="14" y="5" width="1" height="1" fill="#3BB44B"/>
  <rect x="15" y="5" width="1" height="1" fill="#3BB44B"/>
  <rect x="16" y="5" width="1" height="1" fill="#016737"/>
  <rect x="17" y="5" width="1" height="1" fill="#016737"/>
  <rect x="7" y="6" width="1" height="1" fill="#024824"/>
  <rect x="8" y="6" width="1" height="1" fill="#3BB44B"/>
  <rect x="9" y="6" width="1" height="1" fill="#3BB44B"/>
  <rect x="10" y="6" width="1" height="1" fill="#016737"/>
  <rect x="11" y="6" width="1" height="1" fill="#016737"/>
  <rect x="12" y="6" width="1" height="1" fill="#016737"/>
  <rect x="13" y="6" width="1" height="1" fill="#016737"/>
  <rect x="14" y="6" width="1" height="1" fill="#016737"/>
  <rect x="15" y="6" width="1" height="1" fill="#3BB44B"/>
  <rect x="16" y="6" width="1" height="1" fill="#3BB44B"/>
  <rect x="17" y="6" width="1" height="1" fill="#016737"/>
  <rect x="7" y="7" width="1" height="1" fill="#CF3F58"/>
  <rect x="8" y="7" width="1" height="1" fill="#CF3F58"/>
  <rect x="9" y="7" width="1" height="1" fill="#CF3F58"/>
  <rect x="10" y="7" width="1" height="1" fill="#000000"/>
  <rect x="11" y="7" width="1" height="1" fill="#CF3F58"/>
  <rect x="12" y="7" width="1" height="1" fill="#CF3F58"/>
  <rect x="13" y="7" width="1" height="1" fill="#000000"/>
  <rect x="14" y="7" width="1" height="1" fill="#CF3F58"/>
  <rect x="15" y="7" width="1" height="1" fill="#CF3F58"/>
  <rect x="16" y="7" width="1" height="1" fill="#000000"/>
  <rect x="17" y="7" width="1" height="1" fill="#CF3F58"/>
</svg>