<svg width="24" height="24" viewBox="0 0 24 24" fill="none" xmlns="http://www.w3.org/2000/svg">
  <rect x="6" y="7" width="1" height="1" fill="#2B4927"/>
  <rect x="7" y="7" width="1" height="1" fill="#2B4927"/>
  <rect x="8" y="7" width="1" height="1" fill="#2B4927"/>
  <rect x="9" y="7" width="1" height="1" fill="#2B4927"/>
  <rect x="10" y="7" width="1" height="1" fill="#2B4927"/>
  <rect x="11" y="7" width="1" height="1" fill="#2B4927"/>
  <rect x="12" y="7" width="1" height="1" fill="#2B4927"/>
  <rect x="13" y="7" width="1" height="1" fill="#2B4927"/>
  <rect x="14" y="7" width="1" height="1" fill="#2B4927"/>
  <rect x="15" y="7" width="1" height="1" fill="#2B4927"/>
  <rect x="16" y="7" width="1" height="1" fill="#2B4927"/>
  <rect x="17" y="7" width="1" height="1" fill="#2B4927"/>
  <rect x="18" y="7" width="1" height="1" fill="#2B4927"/>
  <rect x="5" y="8" width="1" height="1" fill="#2B4927"/>
  <rect x="6" y="8" width="1" height="1" fill="#2B4927"/>
  <rect x="7" y="8" width="1" height="1" fill="#2B4927"/>
  <rect x="8" y="8" width="1" height="1" fill="#2B4927"/>
  <rect x="9" y="8" width="1" height="1" fill="#2B4927"/>
  <rect x="10" y="8" width="1" height="1" fill="#2B4927"/>
  <rect x="11" y="8" width="1" height="1" fill="#2B4927"/>
  <rect x="12" y="8" width="1" height="1" fill="#2B4927"/>
  <rect x="13" y="8" width="1" height="1" fill="#2B4927"/>
  <rect x="14" y="8" width="1" height="1" fill="#2B4927"/>
  <rect x="15" y="8" width="1" height="1" fill="#2B4927"/>
  <rect x="16" y="8" width="1" height="1" fill="#2B4927"/>
  <rect x="17" y="8" width="1" height="1" fill="#2B4927"/>
  <rect x="18" y="8" width="1" height="1" fill="#2B4927"/>
  <rect x="5" y="9" width="1" height="1" fill="#2B4927"/>
  <rect x="6" y="9" width="1" height="1" fill="#2B4927"/>
  <rect x="7" y="9" width="1" height="1" fill="#2B4927"/>
  <rect x="8" y="9" width="1" height="1" fill="#2B4927"/>
  <rect x="9" y="9" width="1" height="1" fill="#92C75F"/>
  <rect x="10" y="9" width="1" height="1" fill="#92C75F"/>
  <rect x="11" y="9" width="1" height="1" fill="#92C75F"/>
  <rect x="12" y="9" width="1" height="1" fill="#92C75F"/>
  <rect x="13" y="9" width="1" height="1" fill="#2B4927"/>
  <rect x="14" y="9" width="1" height="1" fill="#2B4927"/>
  <rect x="15" y="9" width="1" height="1" fill="#2B4927"/>
  <rect x="16" y="9" width="1" height="1" fill="#92C75F"/>
  <rect x="17" y="9" width="1" height="1" fill="#92C75F"/>
  <rect x="18" y="9" width="1" height="1" fill="#2B4927"/>
  <rect x="4" y="10" width="1" height="1" fill="#2B4927"/>
  <rect x="5" y="10" width="1" height="1" fill="#2B4927"/>
  <rect x="6" y="10" width="1" height="1" fill="#2B4927"/>
  <rect x="7" y="10" width="1" height="1" fill="#2B4927"/>
  <rect x="8" y="10" width="1" height="1" fill="#92C75F"/>
  <rect x="9" y="10" width="1" height="1" fill="#92C75F"/>
  <rect x="10" y="10" width="1" height="1" fill="#92C75F"/>
  <rect x="11" y="10" width="1" height="1" fill="#92C75F"/>
  <rect x="12" y="10" width="1" height="1" fill="#92C75F"/>
  <rect x="13" y="10" width="1" height="1" fill="#92C75F"/>
  <rect x="14" y="10" width="1" height="1" fill="#92C75F"/>
  <rect x="15" y="10" width="1" height="1" fill="#92C75F"/>
  <rect x="16" y="10" width="1" height="1" fill="#92C75F"/>
  <rect x="17" y="10" width="1" height="1" fill="#92C75F"/>
  <rect x="18" y="10" width="1" height="1" fill="#92C75F"/>
  <rect x="19" y="10" width="1" height="1" fill="#2B4927"/>
  <rect x="4" y="11" width="1" height="1" fill="#2B4927"/>
  <rect x="5" y="11" width="1" height="1" fill="#92C75F"/>
  <rect x="6" y="11" width="1" height="1" fill="#2B4927"/>
  <rect x="7" y="11" width="1" height="1" fill="#92C75F"/>
  <rect x="8" y="11" width="1" height="1" fill="#92C75F"/>
  <rect x="9" y="11" width="1" height="1" fill="#92C75F"/>
  <rect x="10" y="11" width="1" height="1" fill="#692121"/>
  <rect x="11" y="11" width="1" height="1" fill="#000000"/>
  <rect x="12" y="11" width="1" height="1" fill="#92C75F"/>
  <rect x="13" y="11" width="1" height="1" fill="#92C75F"/>
  <rect x="14" y="11" width="1" height="1" fill="#92C75F"/>
  <rect x="15" y="11" width="1" height="1" fill="#92C75F"/>
  <rect x="16" y="11" width="1" height="1" fill="#692121"/>
  <rect x="17" y="11" width="1" height="1" fill="#000000"/>
  <rect x="18" y="11" width="1" height="1" fill="#92C75F"/>
  <rect x="19" y="11" width="1" height="1" fill="#2B4927"/>
  <rect x="4" y="12" width="1" height="1" fill="#2B4927"/>
  <rect x="5" y="12" width="1" height="1" fill="#92C75F"/>
  <rect x="6" y="12" width="1" height="1" fill="#2B4927"/>
  <rect x="7" y="12" width="1" height="1" fill="#92C75F"/>
  <rect x="8" y="12" width="1" height="1" fill="#92C75F"/>
  <rect x="9" y="12" width="1" height="1" fill="#92C75F"/>
  <rect x="10" y="12" width="1" height="1" fill="#692121"/>
  <rect x="11" y="12" width="1" height="1" fill="#692121"/>
  <rect x="12" y="12" width="1" height="1" fill="#92C75F"/>
  <rect x="13" y="12" width="1" height="1" fill="#92C75F"/>
  <rect x="14" y="12" width="1" height="1" fill="#92C75F"/>
  <rect x="15" y="12" width="1" height="1" fill="#92C75F"/>
  <rect x="16" y="12" width="1" height="1" fill="#692121"/>
  <rect x="17" y="12" width="1" height="1" fill="#692121"/>
  <rect x="18" y="12" width="1" height="1" fill="#92C75F"/>
  <rect x="19" y="12" width="1" height="1" fill="#2B4927"/>
  <rect x="4" y="13" width="1" height="1" fill="#2B4927"/>
  <rect x="5" y="13" width="1" height="1" fill="#92C75F"/>
  <rect x="6" y="13" width="1" height="1" fill="#2B4927"/>
  <rect x="7" y="13" width="1" height="1" fill="#92C75F"/>
  <rect x="8" y="13" width="1" height="1" fill="#92C75F"/>
  <rect x="9" y="13" width="1" height="1" fill="#92C75F"/>
  <rect x="10" y="13" width="1" height="1" fill="#E7DE17"/>
  <rect x="11" y="13" width="1" height="1" fill="#D5F39D"/>
  <rect x="12" y="13" width="1" height="1" fill="#D5F39D"/>
  <rect x="13" y="13" width="1" height="1" fill="#D5F39D"/>
  <rect x="14" y="13" width="1" height="1" fill="#D5F39D"/>
  <rect x="15" y="13" width="1" height="1" fill="#D5F39D"/>
  <rect x="16" y="13" width="1" height="1" fill="#D5F39D"/>
  <rect x="17" y="13" width="1" height="1" fill="#E7DE17"/>
  <rect x="18" y="13" width="1" height="1" fill="#92C75F"/>
  <rect x="19" y="13" width="1" height="1" fill="#2B4927"/>
  <rect x="4" y="14" width="1" height="1" fill="#2B4927"/>
  <rect x="5" y="14" width="1" height="1" fill="#2B4927"/>
  <rect x="6" y="14" width="1" height="1" fill="#2B4927"/>
  <rect x="7" y="14" width="1" height="1" fill="#92C75F"/>
  <rect x="8" y="14" width="1" height="1" fill="#92C75F"/>
  <rect x="9" y="14" width="1" height="1" fill="#E7DE17"/>
  <rect x="10" y="14" width="1" height="1" fill="#D5F39D"/>
  <rect x="11" y="14" width="1" height="1" fill="#D5F39D"/>
  <rect x="12" y="14" width="1" height="1" fill="#D5F39D"/>
  <rect x="13" y="14" width="1" height="1" fill="#D5F39D"/>
  <rect x="14" y="14" width="1" height="1" fill="#D5F39D"/>
  <rect x="15" y="14" width="1" height="1" fill="#D5F39D"/>
  <rect x="16" y="14" width="1" height="1" fill="#D5F39D"/>
  <rect x="17" y="14" width="1" height="1" fill="#D5F39D"/>
  <rect x="18" y="14" width="1" height="1" fill="#E7DE17"/>
  <rect x="19" y="14" width="1" height="1" fill="#2B4927"/>
  <rect x="5" y="15" width="1" height="1" fill="#2B4927"/>
  <rect x="6" y="15" width="1" height="1" fill="#2B4927"/>
  <rect x="7" y="15" width="1" height="1" fill="#92C75F"/>
  <rect x="8" y="15" width="1" height="1" fill="#92C75F"/>
  <rect x="9" y="15" width="1" height="1" fill="#D5F39D"/>
  <rect x="10" y="15" width="1" height="1" fill="#D5F39D"/>
  <rect x="11" y="15" width="1" height="1" fill="#D5F39D"/>
  <rect x="12" y="15" width="1" height="1" fill="#D5F39D"/>
  <rect x="13" y="15" width="1" height="1" fill="#D5F39D"/>
  <rect x="14" y="15" width="1" height="1" fill="#D5F39D"/>
  <rect x="15" y="15" width="1" height="1" fill="#D5F39D"/>
  <rect x="16" y="15" width="1" height="1" fill="#D5F39D"/>
  <rect x="17" y="15" width="1" height="1" fill="#D5F39D"/>
  <rect x="18" y="15" width="1" height="1" fill="#D5F39D"/>
  <rect x="5" y="16" width="1" height="1" fill="#2B4927"/>
  <rect x="6" y="16" width="1" height="1" fill="#2B4927"/>
  <rect x="7" y="16" width="1" height="1" fill="#2B4927"/>
  <rect x="8" y="16" width="1" height="1" fill="#92C75F"/>
  <rect x="9" y="16" width="1" height="1" fill="#92C75F"/>
  <rect x="10" y="16" width="1" height="1" fill="#D5F39D"/>
  <rect x="11" y="16" width="1" height="1" fill="#D5F39D"/>
  <rect x="12" y="16" width="1" height="1" fill="#D5F39D"/>
  <rect x="13" y="16" width="1" height="1" fill="#D5F39D"/>
  <rect x="14" y="16" width="1" height="1" fill="#D5F39D"/>
  <rect x="15" y="16" width="1" height="1" fill="#D5F39D"/>
  <rect x="16" y="16" width="1" height="1" fill="#D5F39D"/>
  <rect x="17" y="16" width="1" height="1" fill="#D5F39D"/>
  <rect x="18" y="16" width="1" height="1" fill="#92C75F"/>
  <rect x="5" y="17" width="1" height="1" fill="#2B4927"/>
  <rect x="6" y="17" width="1" height="1" fill="#2B4927"/>
  <rect x="7" y="17" width="1" height="1" fill="#2B4927"/>
  <rect x="8" y="17" width="1" height="1" fill="#2B4927"/>
  <rect x="9" y="17" width="1" height="1" fill="#92C75F"/>
  <rect x="10" y="17" width="1" height="1" fill="#92C75F"/>
  <rect x="11" y="17" width="1" height="1" fill="#D5F39D"/>
  <rect x="12" y="17" width="1" height="1" fill="#D5F39D"/>
  <rect x="13" y="17" width="1" height="1" fill="#D5F39D"/>
  <rect x="14" y="17" width="1" height="1" fill="#D5F39D"/>
  <rect x="15" y="17" width="1" height="1" fill="#D5F39D"/>
  <rect x="16" y="17" width="1" height="1" fill="#D5F39D"/>
  <rect x="17" y="17" width="1" height="1" fill="#92C75F"/>
  <rect x="18" y="17" width="1" height="1" fill="#2B4927"/>
  <rect x="3" y="19" width="1" height="1" fill="#1E301C"/>
  <rect x="4" y="19" width="1" height="1" fill="#1E301C"/>
  <rect x="10" y="18" width="1" height="1" fill="#1E301C"/>
  <rect x="11" y="18" width="1" height="1" fill="#1E301C"/>
  <rect x="2" y="20" width="1" height="1" fill="#1E301C"/>
  <rect x="3" y="20" width="1" height="1" fill="#1E301C"/>
  <rect x="4" y="20" width="1" height="1" fill="#1E301C"/>
  <rect x="5" y="20" width="1" height="1" fill="#1E301C"/>
  <rect x="9" y="19" width="1" height="1" fill="#2B4927"/>
  <rect x="10" y="19" width="1" height="1" fill="#2B4927"/>
  <rect x="11" y="19" width="1" height="1" fill="#2B4927"/>
  <rect x="12" y="19" width="1" height="1" fill="#2B4927"/>
  <rect x="2" y="21" width="1" height="1" fill="#1E301C"/>
  <rect x="3" y="21" width="1" height="1" fill="#1E301C"/>
  <rect x="5" y="21" width="1" height="1" fill="#1E301C"/>
  <rect x="8" y="20" width="1" height="1" fill="#2B4927"/>
  <rect x="9" y="20" width="1" height="1" fill="#2B4927"/>
  <rect x="10" y="20" width="1" height="1" fill="#92C75F"/>
  <rect x="11" y="20" width="1" height="1" fill="#92C75F"/>
  <rect x="12" y="20" width="1" height="1" fill="#2B4927"/>
  <rect x="13" y="20" width="1" height="1" fill="#2B4927"/>
  <rect x="2" y="22" width="1" height="1" fill="#1E301C"/>
  <rect x="3" y="22" width="1" height="1" fill="#1E301C"/>
  <rect x="4" y="22" width="1" height="1" fill="#1E301C"/>
  <rect x="7" y="21" width="1" height="1" fill="#2B4927"/>
  <rect x="8" y="21" width="1" height="1" fill="#2B4927"/>
  <rect x="9" y="21" width="1" height="1" fill="#92C75F"/>
  <rect x="10" y="21" width="1" height="1" fill="#92C75F"/>
  <rect x="11" y="21" width="1" height="1" fill="#92C75F"/>
  <rect x="12" y="21" width="1" height="1" fill="#92C75F"/>
  <rect x="13" y="21" width="1" height="1" fill="#2B4927"/>
  <rect x="3" y="23" width="1" height="1" fill="#1E301C"/>
  <rect x="4" y="23" width="1" height="1" fill="#1E301C"/>
  <rect x="5" y="23" width="1" height="1" fill="#1E301C"/>
  <rect x="7" y="22" width="1" height="1" fill="#2B4927"/>
  <rect x="8" y="22" width="1" height="1" fill="#2B4927"/>
  <rect x="9" y="22" width="1" height="1" fill="#92C75F"/>
  <rect x="10" y="22" width="1" height="1" fill="#92C75F"/>
  <rect x="11" y="22" width="1" height="1" fill="#92C75F"/>
  <rect x="12" y="22" width="1" height="1" fill="#92C75F"/>
  <rect x="13" y="22" width="1" height="1" fill="#2B4927"/>
  <rect x="6" y="23" width="1" height="1" fill="#1E301C"/>
  <rect x="7" y="23" width="1" height="1" fill="#2B4927"/>
  <rect x="8" y="23" width="1" height="1" fill="#2B4927"/>
  <rect x="9" y="23" width="1" height="1" fill="#92C75F"/>
  <rect x="10" y="23" width="1" height="1" fill="#92C75F"/>
  <rect x="11" y="23" width="1" height="1" fill="#92C75F"/>
  <rect x="12" y="23" width="1" height="1" fill="#92C75F"/>
  <rect x="13" y="23" width="1" height="1" fill="#2B4927"/>
</svg>