<svg width="24" height="24" viewBox="0 0 24 24" fill="none" xmlns="http://www.w3.org/2000/svg">
  <rect x="10" y="18" width="1" height="1" fill="#ffffff"/>
  <rect x="11" y="18" width="1" height="1" fill="#ffffff"/>
  <rect x="8" y="20" width="1" height="1" fill="#DB2F2F"/>
  <rect x="14" y="20" width="1" height="1" fill="#DB2F2F"/>
  <rect x="9" y="21" width="1" height="1" fill="#DB2F2F"/>
  <rect x="10" y="21" width="1" height="1" fill="#DB2F2F"/>
  <rect x="13" y="21" width="1" height="1" fill="#DB2F2F"/>
  <rect x="9" y="22" width="1" height="1" fill="#DB2F2F"/>
  <rect x="10" y="22" width="1" height="1" fill="#DB2F2F"/>
  <rect x="11" y="22" width="1" height="1" fill="#DB2F2F"/>
  <rect x="12" y="22" width="1" height="1" fill="#DB2F2F"/>
  <rect x="13" y="22" width="1" height="1" fill="#DB2F2F"/>
  <rect x="9" y="23" width="1" height="1" fill="#191717"/>
  <rect x="10" y="23" width="1" height="1" fill="#191717"/>
  <rect x="11" y="23" width="1" height="1" fill="#191717"/>
  <rect x="12" y="23" width="1" height="1" fill="#191717"/>
</svg>