<svg width="24" height="24" viewBox="0 0 24 24" fill="none" xmlns="http://www.w3.org/2000/svg">
  <rect x="9" y="18" width="1" height="1" fill="#9A9A9A"/>
  <rect x="10" y="18" width="1" height="1" fill="#3E3E3E"/>
  <rect x="11" y="18" width="1" height="1" fill="#3E3E3E"/>
  <rect x="12" y="18" width="1" height="1" fill="#9A9A9A"/>
  <rect x="8" y="19" width="1" height="1" fill="#9A9A9A"/>
  <rect x="9" y="19" width="1" height="1" fill="#9A9A9A"/>
  <rect x="10" y="19" width="1" height="1" fill="#2C2C2C"/>
  <rect x="11" y="19" width="1" height="1" fill="#2C2C2C"/>
  <rect x="12" y="19" width="1" height="1" fill="#9A9A9A"/>
  <rect x="13" y="19" width="1" height="1" fill="#9A9A9A"/>
  <rect x="7" y="20" width="1" height="1" fill="#5E5E5E"/>
  <rect x="13" y="20" width="1" height="1" fill="#5E5E5E"/>
  <rect x="8" y="20" width="1" height="1" fill="#5E5E5E"/>
  <rect x="9" y="20" width="1" height="1" fill="#5E5E5E"/>
  <rect x="10" y="20" width="1" height="1" fill="#2C2C2C"/>
  <rect x="11" y="20" width="1" height="1" fill="#2C2C2C"/>
  <rect x="12" y="20" width="1" height="1" fill="#5E5E5E"/>
  <rect x="7" y="21" width="1" height="1" fill="#3E3E3E"/>
  <rect x="13" y="21" width="1" height="1" fill="#3E3E3E"/>
  <rect x="8" y="21" width="1" height="1" fill="#3E3E3E"/>
  <rect x="9" y="21" width="1" height="1" fill="#5E5E5E"/>
  <rect x="10" y="21" width="1" height="1" fill="#5E5E5E"/>
  <rect x="11" y="21" width="1" height="1" fill="#5E5E5E"/>
  <rect x="12" y="21" width="1" height="1" fill="#5E5E5E"/>
  <rect x="7" y="22" width="1" height="1" fill="#3E3E3E"/>
  <rect x="13" y="22" width="1" height="1" fill="#3E3E3E"/>
  <rect x="8" y="22" width="1" height="1" fill="#3E3E3E"/>
  <rect x="9" y="22" width="1" height="1" fill="#5E5E5E"/>
  <rect x="10" y="22" width="1" height="1" fill="#5E5E5E"/>
  <rect x="11" y="22" width="1" height="1" fill="#7EEAB3"/>
  <rect x="12" y="22" width="1" height="1" fill="#5E5E5E"/>
  <rect x="7" y="23" width="1" height="1" fill="#3E3E3E"/>
  <rect x="13" y="23" width="1" height="1" fill="#3E3E3E"/>
  <rect x="8" y="23" width="1" height="1" fill="#3E3E3E"/>
  <rect x="9" y="23" width="1" height="1" fill="#5E5E5E"/>
  <rect x="10" y="23" width="1" height="1" fill="#5E5E5E"/>
  <rect x="11" y="23" width="1" height="1" fill="#5E5E5E"/>
  <rect x="12" y="23" width="1" height="1" fill="#5E5E5E"/>
</svg>